<svg id="Layer_1" viewBox="0 0 24 24" xmlns="http://www.w3.org/2000/svg" data-name="Layer 1"><path d="m22 4.351v-.851c0-1.93-1.57-3.5-3.5-3.5s-3.5 1.57-3.5 3.5v.851c-1.178.564-2 1.758-2 3.149v3c0 1.93 1.57 3.5 3.5 3.5h4c1.93 0 3.5-1.57 3.5-3.5v-3c0-1.391-.822-2.585-2-3.149zm-3.5 6.149c-.828 0-1.5-.672-1.5-1.5s.672-1.5 1.5-1.5 1.5.672 1.5 1.5-.672 1.5-1.5 1.5zm1.5-6.5h-3v-.5c0-.827.673-1.5 1.5-1.5s1.5.673 1.5 1.5zm.5 12h-4c-3.032 0-5.5-2.467-5.5-5.5v-3c0-1.645.758-3.196 2.005-4.229.018-.441.104-.863.22-1.271h-8.225c-2.757 0-5 2.243-5 5v8c0 2.757 2.243 5 5 5h6v2h-4c-.552 0-1 .447-1 1s.448 1 1 1h10c.552 0 1-.447 1-1s-.448-1-1-1h-4v-2h6c2.757 0 5-2.243 5-5v-.261c-.952.787-2.172 1.261-3.5 1.261zm-14.049-9c1.105 0 2 .895 2 2s-.895 2-2 2-2-.895-2-2 .895-2 2-2zm2.649 8.98c-.528.111-1.072-.236-1.18-.781-.141-.694-.759-1.199-1.47-1.199s-1.329.504-1.47 1.199c-.11.541-.636.893-1.18.781-.541-.11-.891-.638-.781-1.179.33-1.623 1.772-2.801 3.431-2.801s3.101 1.178 3.431 2.801c.109.541-.24 1.069-.781 1.179z"/></svg>