<svg id="Layer_1" viewBox="0 0 24 24" xmlns="http://www.w3.org/2000/svg" data-name="Layer 1"><path d="m21.854 18.199c-2.056 4.304-6.614 4.801-9.864 4.801-7.608 0-11-3.393-11-11s3.392-11 11-11c3.269 0 7.852.504 9.894 4.864.352.75.028 1.643-.722 1.995-.75.351-1.644.028-1.995-.722-.727-1.551-2.147-3.136-7.177-3.136-5.982-.001-8 2.018-8 7.999s2.019 8 8 8c5.004 0 6.426-1.564 7.157-3.094.357-.748 1.252-1.063 2-.707.747.357 1.064 1.252.707 2zm-.354-7.699h-9.646c.312-.257.62-.518.967-.745.694-.453.888-1.383.435-2.076-.454-.694-1.382-.887-2.077-.435-1.599 1.045-2.912 2.358-3.908 3.899-.167.252-.266.549-.271.857.005.307.104.605.271.857.996 1.54 2.309 2.853 3.908 3.899.253.166.538.245.819.245.489 0 .969-.239 1.257-.679.453-.693.259-1.623-.435-2.076-.347-.227-.656-.487-.967-.745h9.646c.828 0 1.5-.671 1.5-1.5s-.672-1.5-1.5-1.5z"/></svg>